<svg width="97" height="96" viewBox="0 0 97 96" fill="none" xmlns="http://www.w3.org/2000/svg">
<circle cx="48.5" cy="48" r="47.5" stroke="#CAC4D0"/>
<path fill-rule="evenodd" clip-rule="evenodd" d="M51.3646 33.151H56.3589C58.0919 33.151 59.5098 34.5689 59.5098 36.302V47.3305C59.5093 47.3305 59.5088 47.3305 59.5083 47.3305C58.4139 47.3305 57.3568 47.4899 56.3589 47.7867V36.302H49.9781L47.095 33.151H40.4149L37.5317 36.302H31.151V55.2079H48.9366C48.6394 56.2063 48.4799 57.2639 48.4799 58.3589H31.151C29.4179 58.3589 28 56.9409 28 55.2079V36.302C28 34.5689 29.4179 33.151 31.151 33.151H36.1453L39.0284 30H48.4814L51.3646 33.151ZM35.8775 45.7549C35.8775 41.4066 39.4066 37.8775 43.7549 37.8775C48.1033 37.8775 51.6324 41.4066 51.6324 45.7549C51.6324 50.1033 48.1033 53.6324 43.7549 53.6324C39.4066 53.6324 35.8775 50.1033 35.8775 45.7549ZM39.0284 45.7549C39.0284 48.3545 41.1554 50.4814 43.7549 50.4814C46.3545 50.4814 48.4814 48.3545 48.4814 45.7549C48.4814 43.1554 46.3545 41.0284 43.7549 41.0284C41.1554 41.0284 39.0284 43.1554 39.0284 45.7549Z" fill="#49454F"/>
<path d="M66.3207 53.6328L57.6686 62.2849L54.2682 58.8976L52.417 60.7488L57.6686 66.0004L68.1719 55.4971L66.3207 53.6328Z" fill="#49454F"/>
</svg>
