<svg width="21" height="18" viewBox="0 0 21 18" fill="currentColor" xmlns="http://www.w3.org/2000/svg">
<path d="M20.4 5.89L19.35 1.52C19.13 0.62 18.35 0 17.44 0H3.55001C2.65001 0 1.86001 0.63 1.65001 1.52L0.600007 5.89C0.360007 6.91 0.580007 7.95 1.22001 8.77C1.30001 8.88 1.41001 8.96 1.50001 9.06V16C1.50001 17.1 2.40001 18 3.50001 18H17.5C18.6 18 19.5 17.1 19.5 16V9.06C19.59 8.97 19.7 8.88 19.78 8.78C20.42 7.96 20.65 6.91 20.4 5.89ZM17.41 1.99L18.46 6.36C18.56 6.78 18.47 7.2 18.21 7.53C18.07 7.71 17.77 8 17.27 8C16.66 8 16.13 7.51 16.06 6.86L15.48 2L17.41 1.99ZM11.5 2H13.46L14 6.52C14.05 6.91 13.93 7.3 13.67 7.59C13.45 7.85 13.13 8 12.72 8C12.05 8 11.5 7.41 11.5 6.69V2ZM6.99001 6.52L7.54001 2H9.50001V6.69C9.50001 7.41 8.95001 8 8.21001 8C7.87001 8 7.56001 7.85 7.32001 7.59C7.19535 7.44333 7.10182 7.27284 7.04509 7.0889C6.98836 6.90496 6.96962 6.71141 6.99001 6.52ZM2.54001 6.36L3.55001 2H5.52001L4.94001 6.86C4.86001 7.51 4.34001 8 3.73001 8C3.24001 8 2.93001 7.71 2.80001 7.53C2.53001 7.21 2.44001 6.78 2.54001 6.36ZM3.50001 16V9.97C3.58001 9.98 3.65001 10 3.73001 10C4.60001 10 5.39001 9.64 5.97001 9.05C6.57001 9.65 7.37001 10 8.28001 10C9.15001 10 9.93001 9.64 10.51 9.07C11.1 9.64 11.9 10 12.8 10C13.64 10 14.44 9.65 15.04 9.05C15.62 9.64 16.41 10 17.28 10C17.36 10 17.43 9.98 17.51 9.97V16H3.50001Z" fill="currentColor"/>
</svg>
