<svg width="41" height="40" viewBox="0 0 41 40" fill="none" xmlns="http://www.w3.org/2000/svg">
<g clip-path="url(#clip0_289_1645)">
<path d="M20.0195 12C15.0195 12 10.7495 15.11 9.01953 19.5C10.7495 23.89 15.0195 27 20.0195 27C25.0195 27 29.2895 23.89 31.0195 19.5C29.2895 15.11 25.0195 12 20.0195 12ZM20.0195 24.5C17.2595 24.5 15.0195 22.26 15.0195 19.5C15.0195 16.74 17.2595 14.5 20.0195 14.5C22.7795 14.5 25.0195 16.74 25.0195 19.5C25.0195 22.26 22.7795 24.5 20.0195 24.5ZM20.0195 16.5C18.3595 16.5 17.0195 17.84 17.0195 19.5C17.0195 21.16 18.3595 22.5 20.0195 22.5C21.6795 22.5 23.0195 21.16 23.0195 19.5C23.0195 17.84 21.6795 16.5 20.0195 16.5Z" fill="#49454F"/>
</g>
<defs>
<clipPath id="clip0_289_1645">
<rect width="24" height="24" fill="white" transform="translate(8.01953 8)"/>
</clipPath>
</defs>
</svg>
