<svg width="140" height="50" viewBox="0 0 140 50" fill="none" xmlns="http://www.w3.org/2000/svg">
<path d="M33.6978 48.6852C31.5389 48.0942 30.0739 46.5775 29.6306 44.4698C29.38 43.2486 29.4956 40.7272 29.939 38.1665C30.3245 35.9604 30.3052 34.6406 29.9197 34.2073C29.7462 34.0103 29.4956 33.9118 29.3414 33.9709C29.1872 34.03 28.6475 34.9755 28.127 36.0983C24.773 43.2092 19.3758 46.3017 13.9978 44.2138C10.7016 42.9334 7.57894 39.6439 6.26818 36.0392C5.6899 34.4633 5.6899 31.0556 6.2489 29.5783C7.2898 26.9388 9.06318 25.166 11.8196 23.9841C14.2677 22.9598 15.7326 22.7431 20.3974 22.7431C24.7538 22.7431 26.8741 22.9598 29.245 23.6098C30.0354 23.8265 30.7293 23.925 30.8064 23.8462C31.0955 23.531 31.5582 21.0688 31.8666 18.3702C32.2521 14.7261 32.5027 13.4457 32.9653 12.323C34.0062 9.84104 37.2831 9.46678 40.0974 11.5154C42.449 13.2488 44.685 17.2868 44.685 19.7884C44.685 22.5658 43.355 23.9841 40.4829 24.2796C39.5384 24.378 39.0372 24.5159 38.9601 24.6932C38.8444 25.0281 39.4227 25.7569 39.789 25.7569C40.1938 25.7569 42.8731 27.2342 43.6249 27.8843C45.5717 29.5192 46.6705 32.2966 46.6897 35.6058C46.6897 37.2407 46.5934 37.9892 46.2464 39.1514C45.1477 42.7955 42.6032 46.5578 40.3287 47.917C38.5939 48.9609 35.8567 49.2761 33.6978 48.6852Z" fill="white"/>
<path d="M86.7648 46.9707C85.8396 45.8676 84.3746 44.0948 83.5264 43.0508C82.6783 42.0068 81.9266 41.1401 81.8494 41.1401C81.7531 41.1204 81.6952 42.7947 81.6952 44.8433V48.5662H81.2133H80.7314V43.2675C80.7314 40.3522 80.77 37.9688 80.8085 37.9688C80.8664 37.9688 82.3506 39.6825 84.1433 41.7704L87.3816 45.5524L87.4395 42.0856L87.478 38.5991L88.0563 38.5203L88.6346 38.4218V43.7205C88.6346 46.6161 88.596 48.9995 88.5382 48.9995C88.4996 48.9995 87.69 48.0934 86.7648 46.9707Z" fill="white"/>
<path d="M110.994 48.8619C108.18 48.5271 106.503 46.5573 106.503 43.5829C106.503 41.1207 107.737 39.2494 109.895 38.4221C110.667 38.1463 112.729 38.1069 113.404 38.363C113.866 38.5403 113.886 38.5797 113.596 39.0327C113.307 39.4858 113.269 39.4858 112.478 39.1903C109.202 38.0084 106.715 43.1102 108.932 46.4588C110.204 48.4089 112.556 48.5271 113.943 46.7149C114.387 46.1436 114.657 46.2618 114.657 47.0301C114.657 47.5028 114.502 47.7195 113.886 48.1134C113.076 48.6453 111.842 48.9604 110.994 48.8619Z" fill="white"/>
<path d="M66.0041 48.508C65.58 48.3701 65.0789 48.0746 64.8668 47.858C64.5199 47.4837 64.5199 47.4443 64.8283 46.8337C65.1367 46.223 65.1752 46.2033 65.3487 46.5579C66.2932 48.3504 68.7798 47.7004 68.7798 45.6518C68.7798 44.7457 68.5678 44.4896 66.486 42.7168C65.4644 41.8698 64.9246 40.944 64.9246 40.1167C64.9246 39.447 65.4836 38.4424 66.0041 38.1863C66.7559 37.8515 68.2787 37.9106 68.7605 38.3242C69.1268 38.6197 69.1653 38.7379 68.9533 39.3091L68.7413 39.9591L68.2787 39.447C67.4883 38.5803 66.274 38.8758 66.274 39.9197C66.2932 40.5895 66.698 41.0819 68.1823 42.1653C69.5701 43.1896 69.9171 43.6229 70.1484 44.6472C70.5147 46.2427 69.3196 48.1731 67.7197 48.5868C66.7173 48.8429 66.9293 48.8429 66.0041 48.508Z" fill="white"/>
<path d="M115.717 47.5429C115.967 46.8731 116.854 44.5685 117.702 42.4017C119.823 36.9257 119.591 36.8666 122.232 43.4457C123.369 46.2428 124.295 48.5671 124.295 48.6262C124.295 48.6656 123.928 48.6853 123.485 48.6853C122.675 48.6656 122.675 48.6459 122.251 47.5035L121.827 46.3413L119.649 46.2822L117.452 46.2231L117.008 47.4641C116.603 48.6459 116.546 48.705 115.929 48.7247H115.273L115.717 47.5429ZM121.345 45.0215C121.288 44.8836 120.921 43.9185 120.536 42.8942C120.15 41.8699 119.765 40.9441 119.707 40.8456C119.63 40.7077 118.473 43.4654 118.011 44.923C117.914 45.2185 118.088 45.2579 119.668 45.2579C121.018 45.2579 121.422 45.1988 121.345 45.0215Z" fill="white"/>
<path d="M126.125 48.6059C125.913 48.5074 125.528 48.2513 125.277 48.0544L124.834 47.6801L125.22 46.9119C125.451 46.4982 125.624 46.2815 125.644 46.4588C125.644 46.8528 126.376 47.5225 126.954 47.7195C127.533 47.8968 128.439 47.5028 128.824 46.9119C128.978 46.6558 129.113 46.0846 129.113 45.6118C129.113 44.8633 129.017 44.7057 128.111 43.8784C125.509 41.5738 125.085 40.8646 125.374 39.407C125.644 38.0675 127.282 37.3978 128.786 38.0282C129.557 38.363 129.595 38.4615 129.306 39.2691L129.094 39.801L128.67 39.407C128.034 38.8161 127.571 38.7176 127.07 39.0524C126.029 39.7419 126.607 40.7859 128.978 42.4405C130.096 43.2284 130.54 44.0754 130.52 45.3951C130.52 46.6952 129.826 47.8377 128.728 48.4089C127.937 48.8226 126.8 48.9014 126.125 48.6059Z" fill="white"/>
<path d="M130.849 48.7436C130.849 48.7239 131.755 46.3996 132.853 43.5828C134.665 38.9341 134.897 38.4613 135.321 38.4022C135.745 38.3432 135.86 38.481 136.265 39.4856C136.496 40.116 137.422 42.4009 138.308 44.548C139.195 46.7147 139.908 48.5269 139.908 48.586C139.908 48.6648 139.542 48.6845 139.079 48.6451C138.27 48.5663 138.251 48.5663 137.884 47.4632L137.499 46.3405L135.244 46.2814L133.008 46.2223L132.68 47.2663C132.487 47.8375 132.294 48.3693 132.217 48.4284C132.102 48.5466 130.849 48.8421 130.849 48.7436ZM136.458 43.7207C135.687 41.5933 135.282 40.6478 135.205 40.7463C135.109 40.8448 133.547 45.0207 133.547 45.1586C133.547 45.2177 134.318 45.2571 135.282 45.2571H136.998L136.458 43.7207Z" fill="white"/>
<path d="M70.708 48.5472C70.708 48.5078 71.5754 46.2622 72.6163 43.5636C74.4475 38.8559 74.5439 38.6589 75.0451 38.6589C75.6041 38.6589 75.4113 38.2846 78.2642 45.1592C79.8062 48.8624 79.7677 48.6457 78.8039 48.5669L77.9943 48.5078L76.5101 44.6273C75.7005 42.5 74.9873 40.8059 74.9294 40.8847C74.8523 40.9635 74.2162 42.5788 73.503 44.4697C71.8838 48.7639 71.9802 48.6063 71.2863 48.6063C70.9586 48.6063 70.708 48.5866 70.708 48.5472Z" fill="white"/>
<path d="M93.2603 48.4686C93.1061 48.4095 92.9133 48.2519 92.8362 48.1337C92.7591 48.0155 92.682 46.026 92.682 43.7411V39.5454H91.3327C90.022 39.5454 89.9834 39.5257 89.9834 39.053V38.5605H93.3567H96.73V39.053C96.73 39.5257 96.6914 39.5454 95.3806 39.5454H94.0313V43.682C94.0313 47.6806 94.0506 47.8185 94.4169 47.8185C94.8988 47.8185 94.918 48.1337 94.4361 48.4095C94.0313 48.6261 93.7229 48.6458 93.2603 48.4686Z" fill="white"/>
<path d="M98.1373 43.6418C99.9685 39.0325 100.142 38.6583 100.605 38.5992C101.067 38.5401 101.164 38.678 101.935 40.5689C102.378 41.6917 103.265 43.8388 103.901 45.3555C104.537 46.8723 105.096 48.2314 105.154 48.3693C105.231 48.5269 105 48.6057 104.421 48.6057H103.573L102.147 44.804C101.356 42.7357 100.682 40.9826 100.643 40.9432C100.508 40.7659 100.296 41.2584 98.9469 44.804L97.5397 48.5072L96.8651 48.5663L96.1904 48.6254L98.1373 43.6418Z" fill="white"/>
<path d="M54.9009 41.0817C54.1106 40.0771 54.1106 40.0377 54.4768 39.7422C54.6889 39.5846 55.1708 39.1907 55.5563 38.8952C55.9418 38.5997 56.443 37.9694 56.6936 37.5164L57.1176 36.689L57.214 23.4915L57.3104 10.2939H59.1416H60.9728V23.59C60.9728 38.6982 61.0306 38.0679 59.3922 39.9392C58.4477 41.0226 56.8092 42.1059 56.1153 42.1059C55.8454 42.1059 55.4213 41.7514 54.9009 41.0817Z" fill="white"/>
<path d="M71.8643 33.4194C68.4717 32.8482 65.9659 30.2481 64.8864 26.21C64.3081 24.0236 64.3081 19.6309 64.9057 17.4248C65.349 15.6914 66.1972 13.958 67.0839 12.9731C69.5704 10.1563 74.0617 9.38807 77.6085 11.1412C78.9385 11.7912 80.6155 13.6625 81.348 15.258C82.2733 17.2475 82.7166 19.9067 82.601 22.7038C82.5431 24.0039 82.3696 25.5994 82.1962 26.2494C81.136 30.2678 78.5723 32.8876 75.1412 33.4391C73.7148 33.6558 73.3292 33.6558 71.8643 33.4194ZM75.8351 29.795C77.6085 28.7313 78.3024 26.5252 78.3024 22.0144C78.3024 17.9566 77.7434 15.8293 76.3556 14.4898C75.6038 13.761 74.9484 13.5443 73.3871 13.5443C71.2282 13.5443 70.0331 14.411 69.2813 16.499C68.0477 20.0446 68.5295 26.5646 70.2258 28.8101C71.3438 30.3269 74.1388 30.7996 75.8351 29.795Z" fill="white"/>
<path d="M111.881 33.4195C108.759 32.9467 106.195 30.5436 105.116 27.0768C103.824 22.9599 104.248 17.4248 106.099 14.3126C108.084 10.9442 111.901 9.48659 115.949 10.5306C118.936 11.2988 120.98 13.6034 122.098 17.4839C122.599 19.2961 122.618 24.4963 122.098 26.3479C120.999 30.3466 118.474 32.8876 115.043 33.4392C113.635 33.6558 113.481 33.6558 111.881 33.4195ZM115.929 29.6572C116.527 29.2435 117.009 28.692 117.298 28.1207C118.512 25.6979 118.666 19.9658 117.626 16.7354C116.893 14.4701 115.659 13.5443 113.366 13.5443C109.973 13.5443 108.624 15.8096 108.604 21.522C108.604 24.7918 108.971 26.7616 109.896 28.3177C110.744 29.7754 111.727 30.2875 113.597 30.2875C114.85 30.2875 115.1 30.2284 115.929 29.6572Z" fill="white"/>
<path d="M129.402 33.4977C127.725 33.2614 124.583 31.9613 124.371 31.3901C124.275 31.134 125.566 28.5142 125.798 28.5142C125.875 28.5142 126.453 28.7899 127.109 29.1248C129.306 30.2279 131.388 30.5431 133.277 30.0703C135.031 29.6173 136.11 27.8444 135.667 26.1701C135.339 24.9292 134.414 24.2791 131.523 23.3533C128.458 22.3684 127.398 21.8366 126.415 20.7926C124.738 19.0395 124.622 15.3166 126.164 13.0711C128.265 10.0179 133.662 9.30879 137.903 11.4952C139.619 12.3816 139.657 12.4801 138.77 13.8787C138.366 14.5287 137.942 15.1196 137.826 15.1787C137.73 15.2575 136.939 14.9227 136.053 14.4696C134.549 13.6817 134.376 13.6423 132.795 13.6423C130.771 13.6423 129.904 14.0757 129.422 15.3166C129.036 16.3015 129.036 16.5773 129.402 17.3652C129.807 18.2122 130.675 18.685 133.412 19.532C136.033 20.3396 136.804 20.7138 137.942 21.7184C140.062 23.5897 140.602 26.7414 139.291 29.44C138.79 30.484 137.209 32.0598 136.072 32.6507C134.53 33.4386 131.696 33.8129 129.402 33.4977Z" fill="white"/>
<path d="M91.9116 33.1043C90.2153 32.6316 89.0973 31.9028 87.8058 30.5042C85.7818 28.2587 85.0879 26.0722 85.0879 21.916C85.0879 18.8431 85.3578 17.4051 86.3215 15.4157C87.5167 12.9337 89.6756 11.1018 92.1043 10.4912C93.897 10.0382 96.3643 10.176 97.9256 10.7867C99.3328 11.3185 100.875 12.3822 100.856 12.7762C100.836 12.9534 100.489 13.5444 100.085 14.0959C99.3906 15.0611 98.8316 15.3566 98.5617 14.9232C98.4846 14.805 97.9835 14.4702 97.4437 14.1747C96.557 13.702 96.2294 13.6429 94.5716 13.6429C92.8175 13.6429 92.6633 13.6823 91.873 14.2338C90.7743 15.0217 89.6948 17.1885 89.3864 19.2567C89.078 21.3053 89.2708 24.7327 89.7912 26.4071C90.543 28.8693 92.1814 30.0906 94.7644 30.0906C95.5547 30.0906 96.4607 29.9724 96.8269 29.8148L97.5016 29.5193V25.8949C97.5016 23.019 97.5594 22.2114 97.7714 22.0341C97.9449 21.8766 98.6388 21.8175 99.6605 21.8569L101.26 21.916L101.318 26.7616L101.357 31.5876L100.644 32.0012C98.4268 33.2619 94.3596 33.774 91.9116 33.1043Z" fill="white"/>
<path d="M6.51883 21.0291C3.66599 20.6548 1.62275 19.276 0.658954 17.1092C-0.30484 14.903 -0.208461 12.2438 0.928817 9.8604C3.01061 5.52688 9.39093 4.20713 14.7689 7.02392C15.193 7.24059 15.5978 7.43757 15.6363 7.43757C15.6749 7.43757 15.6749 6.78754 15.617 5.97993C15.5399 4.71927 15.5978 4.38441 16.0026 3.45861C16.5808 2.19795 17.1977 1.6858 18.7397 1.23275C22.1709 0.208466 26.5079 2.651 28.7439 6.86633C30.2475 9.70282 30.6137 13.6621 29.8234 18.4684C29.5921 19.8275 29.38 20.97 29.3415 21.0094C29.3029 21.0488 28.0307 20.9306 26.4887 20.7533C23.0575 20.3594 18.9325 20.3594 15.0002 20.7139C10.8174 21.1276 7.98379 21.2261 6.51883 21.0291Z" fill="white"/>
</svg>
