<svg width="21" height="17" viewBox="0 0 21 17" fill="none" xmlns="http://www.w3.org/2000/svg">
<path d="M2.5 14V13.35C2.5 13.01 2.66 12.69 2.91 12.54C4.6 11.53 6.53 11 8.5 11C8.53 11 8.55 11 8.58 11.01C8.68 10.31 8.88 9.64 9.17 9.03C8.95 9.01 8.73 9 8.5 9C6.08 9 3.82 9.67 1.89 10.82C1.01 11.34 0.5 12.32 0.5 13.35V16H9.76C9.34 15.4 9.01 14.72 8.79 14H2.5ZM8.5 8C10.71 8 12.5 6.21 12.5 4C12.5 1.79 10.71 0 8.5 0C6.29 0 4.5 1.79 4.5 4C4.5 6.21 6.29 8 8.5 8ZM8.5 2C9.6 2 10.5 2.9 10.5 4C10.5 5.1 9.6 6 8.5 6C7.4 6 6.5 5.1 6.5 4C6.5 2.9 7.4 2 8.5 2ZM19.25 12C19.25 11.78 19.22 11.58 19.19 11.37L20.33 10.36L19.33 8.63L17.88 9.12C17.56 8.85 17.2 8.64 16.8 8.49L16.5 7H14.5L14.2 8.49C13.8 8.64 13.44 8.85 13.12 9.12L11.67 8.63L10.67 10.36L11.81 11.37C11.78 11.58 11.75 11.78 11.75 12C11.75 12.22 11.78 12.42 11.81 12.63L10.67 13.64L11.67 15.37L13.12 14.88C13.44 15.15 13.8 15.36 14.2 15.51L14.5 17H16.5L16.8 15.51C17.2 15.36 17.56 15.15 17.88 14.88L19.33 15.37L20.33 13.64L19.19 12.63C19.22 12.42 19.25 12.22 19.25 12ZM15.5 14C14.4 14 13.5 13.1 13.5 12C13.5 10.9 14.4 10 15.5 10C16.6 10 17.5 10.9 17.5 12C17.5 13.1 16.6 14 15.5 14Z" fill="currentColor"/>
</svg>
