<svg width="24" height="24" viewBox="0 0 24 24" fill="none" xmlns="http://www.w3.org/2000/svg">
<path d="M21.8987 7.89L20.8487 4.52C20.6287 3.62 19.8487 3 18.9387 3H5.04873C4.14873 3 3.35873 3.63 3.14873 4.52L2.09873 7.89C1.63873 9.86 2.94873 11 2.99873 11.06V19C2.99873 20.1 3.89873 21 4.99873 21H18.9987C20.0987 21 20.9987 20.1 20.9987 19V11.06C22.1187 9.94 22.0887 8.65 21.8987 7.89ZM12.9987 5H14.9587L15.4987 8.52C15.5887 9.23 15.1087 10 14.2187 10C13.5487 10 12.9987 9.41 12.9987 8.69V5ZM6.43873 8.86C6.35873 9.51 5.83873 10 5.22873 10C4.29873 10 3.87873 9.03 4.03873 8.36L5.04873 5H7.01873L6.43873 8.86ZM10.9987 8.69C10.9987 9.41 10.4487 10 9.70873 10C8.95873 10 8.40873 9.3 8.48873 8.52L9.03873 5H10.9987V8.69ZM18.7687 10C18.1587 10 17.6287 9.51 17.5587 8.86L16.9787 5L18.9087 4.99L19.9587 8.36C20.1187 9.03 19.7087 10 18.7687 10Z" fill="white"/>
</svg>
